<?xml version="1.0" encoding="UTF-8"?>
<!DOCTYPE svg PUBLIC "-//W3C//DTD SVG 1.1//EN" "http://www.w3.org/Graphics/SVG/1.1/DTD/svg11.dtd">
<svg xmlns="http://www.w3.org/2000/svg" version="1.1" width="512px" height="512px" style="shape-rendering:geometricPrecision; text-rendering:geometricPrecision; image-rendering:optimizeQuality; fill-rule:evenodd; clip-rule:evenodd" xmlns:xlink="http://www.w3.org/1999/xlink">
<g><path style="opacity:0.98" fill="#73a286" d="M 250.5,133.5 C 253.304,134.638 256.304,134.805 259.5,134C 260.252,133.329 260.586,132.496 260.5,131.5C 263.167,129.5 265.833,127.5 268.5,125.5C 270.203,129.184 272.203,129.351 274.5,126C 273.695,124.887 273.028,123.721 272.5,122.5C 275.045,120.399 278.045,119.066 281.5,118.5C 284.102,118.467 286.102,119.467 287.5,121.5C 285.127,122.378 284.294,124.045 285,126.5C 286.49,127.728 287.99,127.728 289.5,126.5C 290.801,134.846 290.801,143.179 289.5,151.5C 288.305,151.322 287.138,150.989 286,150.5C 283.5,151.333 283,152.833 284.5,155C 285.793,155.49 287.127,155.657 288.5,155.5C 288.608,157.514 287.942,159.18 286.5,160.5C 283.15,160.665 279.817,160.498 276.5,160C 270.819,156.827 265.486,153.161 260.5,149C 256.5,148.333 252.5,148.333 248.5,149C 242.038,156.56 233.704,160.393 223.5,160.5C 219.247,155.727 217.58,150.061 218.5,143.5C 218.519,136.014 219.519,128.681 221.5,121.5C 224.372,118.854 227.705,118.021 231.5,119C 238.279,123.282 244.612,128.116 250.5,133.5 Z"/></g>
<g><path style="opacity:0.867" fill="#e8ece2" d="M 272.5,122.5 C 273.028,123.721 273.695,124.887 274.5,126C 272.203,129.351 270.203,129.184 268.5,125.5C 269.262,123.738 270.596,122.738 272.5,122.5 Z"/></g>
<g><path style="opacity:0.974" fill="#eeefe3" d="M 287.5,121.5 C 288.931,122.78 289.598,124.447 289.5,126.5C 287.99,127.728 286.49,127.728 285,126.5C 284.294,124.045 285.127,122.378 287.5,121.5 Z"/></g>
<g><path style="opacity:0.998" fill="#e7ebdf" d="M 231.5,124.5 C 232.833,124.5 234.167,124.5 235.5,124.5C 235.99,126.948 235.157,128.615 233,129.5C 230.389,128.5 229.889,126.833 231.5,124.5 Z"/></g>
<g><path style="opacity:0.946" fill="#f3b2ce" d="M 314.5,125.5 C 323.873,126.218 327.373,131.218 325,140.5C 322.667,145.5 320.333,150.5 318,155.5C 311.871,153.401 305.704,151.401 299.5,149.5C 294.618,144.783 294.285,139.783 298.5,134.5C 301.533,132.464 304.7,132.131 308,133.5C 309.277,130.062 311.443,127.395 314.5,125.5 Z"/></g>
<g><path style="opacity:0.955" fill="#3d634d" d="M 260.5,131.5 C 260.586,132.496 260.252,133.329 259.5,134C 256.304,134.805 253.304,134.638 250.5,133.5C 250.943,127.477 253.943,125.977 259.5,129C 260.252,129.671 260.586,130.504 260.5,131.5 Z"/></g>
<g><path style="opacity:0.999" fill="#e7ebdf" d="M 278.5,134.5 C 283.073,134.976 283.573,136.642 280,139.5C 277.389,138.5 276.889,136.833 278.5,134.5 Z"/></g>
<g><path style="opacity:0.998" fill="#e7eadf" d="M 242.5,135.5 C 243.5,135.5 244.5,135.5 245.5,135.5C 245.5,137.167 245.5,138.833 245.5,140.5C 244.167,140.5 242.833,140.5 241.5,140.5C 241.366,138.708 241.699,137.042 242.5,135.5 Z"/></g>
<g><path style="opacity:0.998" fill="#e1e6da" d="M 224.5,137.5 C 225.833,137.5 227.167,137.5 228.5,137.5C 228.5,139.167 228.5,140.833 228.5,142.5C 227.167,142.5 225.833,142.5 224.5,142.5C 224.5,140.833 224.5,139.167 224.5,137.5 Z"/></g>
<g><path style="opacity:0.989" fill="#e8ebe0" d="M 262.5,138.5 C 265.95,137.756 267.616,139.09 267.5,142.5C 264.05,143.244 262.384,141.91 262.5,138.5 Z"/></g>
<g><path style="opacity:0.956" fill="#426e54" d="M 286.5,160.5 C 292.731,167.95 298.231,175.95 303,184.5C 312.549,209.602 323.215,234.269 335,258.5C 341.527,276.609 344.193,295.276 343,314.5C 337.649,348.838 319.149,373.004 287.5,387C 246.926,399.575 212.759,390.075 185,358.5C 170.247,337.485 164.58,314.152 168,288.5C 169.985,276.882 172.985,265.548 177,254.5C 187.985,232.851 197.652,210.517 206,187.5C 210.874,177.81 216.707,168.81 223.5,160.5C 233.704,160.393 242.038,156.56 248.5,149C 252.5,148.333 256.5,148.333 260.5,149C 265.486,153.161 270.819,156.827 276.5,160C 279.817,160.498 283.15,160.665 286.5,160.5 Z"/></g>
<g><path style="opacity:0.998" fill="#edeee3" d="M 269.5,149.5 C 270.833,149.5 272.167,149.5 273.5,149.5C 273.5,150.833 273.5,152.167 273.5,153.5C 272.167,153.5 270.833,153.5 269.5,153.5C 269.5,152.167 269.5,150.833 269.5,149.5 Z"/></g>
<g><path style="opacity:0.999" fill="#e4e8dd" d="M 231.5,150.5 C 235.161,150.35 236.161,151.85 234.5,155C 230.707,155.487 229.707,153.987 231.5,150.5 Z"/></g>
<g><path style="opacity:0.988" fill="#e7ebdf" d="M 289.5,151.5 C 289.768,153.099 289.434,154.432 288.5,155.5C 287.127,155.657 285.793,155.49 284.5,155C 283,152.833 283.5,151.333 286,150.5C 287.138,150.989 288.305,151.322 289.5,151.5 Z"/></g>
<g><path style="opacity:1" fill="#629f7b" d="M 315.5,243.5 C 314.79,251.885 313.624,260.218 312,268.5C 308.486,277.851 301.986,283.851 292.5,286.5C 288.06,271.275 279.06,259.608 265.5,251.5C 260.486,248.498 255.152,247.831 249.5,249.5C 242.702,252.297 236.702,256.297 231.5,261.5C 229.568,262.653 227.568,262.653 225.5,261.5C 223.893,261.637 222.559,262.304 221.5,263.5C 221.725,268.17 221.725,272.837 221.5,277.5C 219.616,280.603 218.282,283.937 217.5,287.5C 206.708,286.553 199.542,280.887 196,270.5C 194.089,260.589 193.256,250.589 193.5,240.5C 201.355,225.077 208.188,209.077 214,192.5C 219.591,181.567 226.757,171.734 235.5,163C 241.468,158.511 248.135,156.011 255.5,155.5C 268.981,157.837 279.481,164.837 287,176.5C 290.599,182.034 293.932,187.701 297,193.5C 302.227,208.522 308.227,223.189 315,237.5C 315.495,239.473 315.662,241.473 315.5,243.5 Z"/></g>
<g><path style="opacity:0.961" fill="#f3b1ce" d="M 315.5,162.5 C 320.749,162.875 324.915,165.208 328,169.5C 335.83,163.577 342.164,164.91 347,173.5C 347.971,177.865 347.138,181.865 344.5,185.5C 338.047,190.798 331.213,195.465 324,199.5C 320.057,194.554 315.723,189.887 311,185.5C 303.933,175.867 305.433,168.2 315.5,162.5 Z"/></g>
<g><path style="opacity:1" fill="#315842" d="M 229.5,194.5 C 231.167,199.386 232.333,199.386 233,194.5C 233.483,195.448 233.649,196.448 233.5,197.5C 235.681,197.716 237.347,196.883 238.5,195C 245.864,193.381 250.197,196.215 251.5,203.5C 249.027,203.264 247.36,201.931 246.5,199.5C 241.267,197.289 237.267,198.622 234.5,203.5C 231.515,201.194 229.848,198.194 229.5,194.5 Z"/></g>
<g><path style="opacity:1" fill="#305640" d="M 264.5,194.5 C 268.634,193.943 272.301,194.943 275.5,197.5C 276.842,196.098 277.676,196.431 278,198.5C 279.044,197.377 279.71,196.044 280,194.5C 280.16,197.898 278.993,200.898 276.5,203.5C 274.639,202.472 273.305,200.972 272.5,199C 269.773,198.182 267.106,198.348 264.5,199.5C 263.5,201.167 262.167,202.5 260.5,203.5C 259.417,202.635 259.251,201.635 260,200.5C 261.332,198.34 262.832,196.34 264.5,194.5 Z"/></g>
<g><path style="opacity:1" fill="#cbadb8" d="M 224.5,203.5 C 231.12,202.954 234.286,205.954 234,212.5C 232.287,217.038 229.12,218.538 224.5,217C 219.234,212.419 219.234,207.919 224.5,203.5 Z"/></g>
<g><path style="opacity:1" fill="#ccadb9" d="M 279.5,203.5 C 290.158,204.399 292.158,208.899 285.5,217C 277.614,217.771 274.781,214.271 277,206.5C 278.045,205.627 278.878,204.627 279.5,203.5 Z"/></g>
<g><path style="opacity:1" fill="#315641" d="M 235.5,214.5 C 236.497,214.47 237.164,214.97 237.5,216C 236.496,217.798 235.996,219.632 236,221.5C 248.304,232.119 260.637,232.119 273,221.5C 273,219.5 273,217.5 273,215.5C 275.416,219.42 278.916,221.42 283.5,221.5C 277.744,222.408 272.744,224.908 268.5,229C 255.164,236.585 243.497,234.585 233.5,223C 231.114,223.351 228.781,223.185 226.5,222.5C 228.824,221.338 231.158,220.171 233.5,219C 235.037,217.89 235.703,216.39 235.5,214.5 Z"/></g>
<g><path style="opacity:0.999" fill="#30503d" d="M 193.5,240.5 C 193.256,250.589 194.089,260.589 196,270.5C 199.542,280.887 206.708,286.553 217.5,287.5C 219.09,289.821 221.423,290.821 224.5,290.5C 226.718,291.016 228.718,292.016 230.5,293.5C 230.167,294.5 229.5,295.167 228.5,295.5C 227.264,294.754 225.93,294.421 224.5,294.5C 221.689,293.525 218.689,292.858 215.5,292.5C 204.617,288.785 197.117,281.452 193,270.5C 191.117,263.622 190.284,256.622 190.5,249.5C 190.5,246.167 190.5,242.833 190.5,239.5C 191.791,239.263 192.791,239.596 193.5,240.5 Z"/></g>
<g><path style="opacity:1" fill="#62a07b" d="M 318.5,247.5 C 319.458,247.953 320.292,248.619 321,249.5C 334.938,277.179 337.271,305.846 328,335.5C 313.378,365.896 289.211,381.896 255.5,383.5C 215.455,381.295 189.622,360.961 178,322.5C 173.248,296.449 177.415,272.116 190.5,249.5C 190.284,256.622 191.117,263.622 193,270.5C 197.117,281.452 204.617,288.785 215.5,292.5C 209.912,314.143 216.245,331.309 234.5,344C 254.84,353.626 272.673,350.126 288,333.5C 297.535,320.29 299.702,305.957 294.5,290.5C 304.205,285.958 311.038,278.625 315,268.5C 316.972,261.619 318.138,254.619 318.5,247.5 Z"/></g>
<g><path style="opacity:0.999" fill="#7c4739" d="M 249.5,249.5 C 252.85,249.335 256.183,249.502 259.5,250C 254.856,254.29 251.189,259.29 248.5,265C 245.959,265.381 243.626,266.214 241.5,267.5C 238.505,266.336 235.505,265.17 232.5,264C 231.748,263.329 231.414,262.496 231.5,261.5C 236.702,256.297 242.702,252.297 249.5,249.5 Z"/></g>
<g><path style="opacity:1" fill="#7fa68b" d="M 249.5,249.5 C 255.152,247.831 260.486,248.498 265.5,251.5C 265.062,251.435 264.728,251.601 264.5,252C 266.954,256.07 268.954,260.237 270.5,264.5C 273.943,275.817 269.943,280.317 258.5,278C 250.245,272.528 244.079,274.361 240,283.5C 237.01,287.415 233.177,289.248 228.5,289C 227.956,288.283 227.289,287.783 226.5,287.5C 225.343,283.853 223.677,280.52 221.5,277.5C 221.725,272.837 221.725,268.17 221.5,263.5C 222.559,262.304 223.893,261.637 225.5,261.5C 227.568,262.653 229.568,262.653 231.5,261.5C 231.414,262.496 231.748,263.329 232.5,264C 235.505,265.17 238.505,266.336 241.5,267.5C 243.626,266.214 245.959,265.381 248.5,265C 251.189,259.29 254.856,254.29 259.5,250C 256.183,249.502 252.85,249.335 249.5,249.5 Z"/></g>
<g><path style="opacity:0.999" fill="#754235" d="M 265.5,251.5 C 279.06,259.608 288.06,271.275 292.5,286.5C 290.491,288.065 288.157,289.065 285.5,289.5C 283.025,279.553 278.192,270.887 271,263.5C 270.601,263.728 270.435,264.062 270.5,264.5C 268.954,260.237 266.954,256.07 264.5,252C 264.728,251.601 265.062,251.435 265.5,251.5 Z"/></g>
<g><path style="opacity:1" fill="#984f41" d="M 285.5,289.5 C 281.819,289.573 279.486,291.24 278.5,294.5C 279.833,294.5 281.167,294.5 282.5,294.5C 284.5,294.5 286.5,294.5 288.5,294.5C 292.035,310.389 288.035,323.889 276.5,335C 263.599,342.837 250.266,343.503 236.5,337C 223.247,327.086 218.581,313.919 222.5,297.5C 222.64,295.97 223.307,294.97 224.5,294.5C 225.93,294.421 227.264,294.754 228.5,295.5C 229.5,295.167 230.167,294.5 230.5,293.5C 228.718,292.016 226.718,291.016 224.5,290.5C 224.427,288.973 225.094,287.973 226.5,287.5C 227.289,287.783 227.956,288.283 228.5,289C 233.177,289.248 237.01,287.415 240,283.5C 244.079,274.361 250.245,272.528 258.5,278C 269.943,280.317 273.943,275.817 270.5,264.5C 270.435,264.062 270.601,263.728 271,263.5C 278.192,270.887 283.025,279.553 285.5,289.5 Z"/></g>
<g><path style="opacity:0.999" fill="#314f3b" d="M 318.5,247.5 C 318.138,254.619 316.972,261.619 315,268.5C 311.038,278.625 304.205,285.958 294.5,290.5C 290.265,291.47 286.265,292.803 282.5,294.5C 281.167,294.5 279.833,294.5 278.5,294.5C 279.486,291.24 281.819,289.573 285.5,289.5C 288.157,289.065 290.491,288.065 292.5,286.5C 301.986,283.851 308.486,277.851 312,268.5C 313.624,260.218 314.79,251.885 315.5,243.5C 316.434,242.432 316.768,241.099 316.5,239.5C 317.5,239.5 318.5,239.5 319.5,239.5C 319.721,242.279 319.388,244.946 318.5,247.5 Z"/></g>
<g><path style="opacity:0.999" fill="#724638" d="M 221.5,277.5 C 223.677,280.52 225.343,283.853 226.5,287.5C 225.094,287.973 224.427,288.973 224.5,290.5C 221.423,290.821 219.09,289.821 217.5,287.5C 218.282,283.937 219.616,280.603 221.5,277.5 Z"/></g>
<g><path style="opacity:1" fill="#754236" d="M 294.5,290.5 C 299.702,305.957 297.535,320.29 288,333.5C 272.673,350.126 254.84,353.626 234.5,344C 216.245,331.309 209.912,314.143 215.5,292.5C 218.689,292.858 221.689,293.525 224.5,294.5C 223.307,294.97 222.64,295.97 222.5,297.5C 218.581,313.919 223.247,327.086 236.5,337C 250.266,343.503 263.599,342.837 276.5,335C 288.035,323.889 292.035,310.389 288.5,294.5C 286.5,294.5 284.5,294.5 282.5,294.5C 286.265,292.803 290.265,291.47 294.5,290.5 Z"/></g>
<g><path style="opacity:1" fill="#190d09" d="M 240.5,292.5 C 242.685,292.888 244.518,293.888 246,295.5C 247.531,294.783 248.864,293.783 250,292.5C 250.5,292.833 251,293.167 251.5,293.5C 249.526,297.17 246.526,298.337 242.5,297C 241.418,295.67 240.751,294.17 240.5,292.5 Z"/></g>
<g><path style="opacity:1" fill="#190c08" d="M 259.5,292.5 C 260.5,292.5 261.5,292.5 262.5,292.5C 262.5,293.5 262.5,294.5 262.5,295.5C 265.421,295.854 267.754,294.854 269.5,292.5C 270.521,293.002 270.688,293.668 270,294.5C 267.79,297.29 264.956,298.123 261.5,297C 259.963,295.89 259.297,294.39 259.5,292.5 Z"/></g>
<g><path style="opacity:1" fill="#1b0d0a" d="M 242.5,310.5 C 245.084,310.569 247.084,311.735 248.5,314C 254.763,315.422 260.429,314.255 265.5,310.5C 265.833,310.833 266.167,311.167 266.5,311.5C 260.904,317.499 254.237,318.999 246.5,316C 244.536,314.549 243.203,312.716 242.5,310.5 Z"/></g>
</svg>
